<svg id="main-icon" width="512" height="512" viewBox="0 0 512 512" xmlns="http://www.w3.org/2000/svg">
    <defs>
      <radialGradient id="bg-grad" cx="42%" cy="48%" r="62%">
        <stop offset="0%" stop-color="#0f2215"/>
        <stop offset="100%" stop-color="#060a07"/>
      </radialGradient>
      <clipPath id="icon-clip">
        <rect width="512" height="512" rx="104"/>
      </clipPath>
    </defs>

    <rect width="512" height="512" rx="104" fill="url(#bg-grad)"/>

    <g clip-path="url(#icon-clip)" stroke="#00ff7f" stroke-width="1" opacity="0.048">
      <line x1="0" y1="128" x2="512" y2="128"/>
      <line x1="0" y1="256" x2="512" y2="256"/>
      <line x1="0" y1="384" x2="512" y2="384"/>
      <line x1="128" y1="0" x2="128" y2="512"/>
      <line x1="256" y1="0" x2="256" y2="512"/>
      <line x1="384" y1="0" x2="384" y2="512"/>
    </g>

    <g clip-path="url(#icon-clip)">
      <polyline points="36,444 78,416 114,425 152,393 190,366 228,340 266,312 304,280 342,246 380,210 418,174 458,140 496,112" fill="none" stroke="#00ff7f" stroke-width="2.5" stroke-linecap="round" stroke-linejoin="round" opacity="0.18" style="filter: drop-shadow(rgba(0, 255, 127, 0.6) 0px 0px 5px);"/>
    </g>

    <text x="256" y="348" text-anchor="middle" font-family="Georgia,'Times New Roman',serif" font-size="235" font-weight="bold" fill="#00ff7f" opacity="0.14" style="filter: drop-shadow(rgb(0, 255, 127) 0px 0px 28px);">&#x3a3;</text>

    <text x="256" y="348" text-anchor="middle" font-family="Georgia,'Times New Roman',serif" font-size="235" font-weight="bold" fill="#00ff7f" style="filter: drop-shadow(rgba(0, 255, 127, 0.533) 0px 0px 7px);">&#x3a3;</text>

    <g opacity="0.18" style="filter: drop-shadow(rgb(0, 255, 127) 0px 0px 22px);">
      <polygon points="256,100 330,134 256,168 182,134" fill="#00ff7f"/>
      <rect x="182" y="122" width="148" height="12" rx="2" fill="#00ff7f"/>
    </g>

    <polygon points="256,100 330,134 256,168 182,134" fill="#00ff7f" style="filter: drop-shadow(rgb(0, 255, 127) 0px 0px 6px);"/>

    <rect x="182" y="122" width="148" height="12" rx="2" fill="#00ff7f" style="filter: drop-shadow(rgb(0, 255, 127) 0px 0px 5px);"/>

    <polyline points="330,134 350,134 350,182" fill="none" stroke="#00ff7f" stroke-width="2.5" stroke-linecap="round" style="filter: drop-shadow(rgba(0, 255, 127, 0.533) 0px 0px 4px);"/>

    <circle cx="350" cy="190" r="7" fill="#00ff7f" style="filter: drop-shadow(rgb(0, 255, 127) 0px 0px 6px);"/>

    <circle cx="208" cy="468" r="2.8" fill="#00ff7f" opacity="0.28"/>
    <circle cx="226" cy="468" r="2.8" fill="#00ff7f" opacity="0.45"/>
    <circle cx="256" cy="468" r="2.8" fill="#00ff7f" opacity="0.65"/>
    <circle cx="286" cy="468" r="2.8" fill="#00ff7f" opacity="0.45"/>
    <circle cx="304" cy="468" r="2.8" fill="#00ff7f" opacity="0.28"/>
</svg>
